<?xml version="1.0" standalone="no"?>
<!DOCTYPE svg PUBLIC "-//W3C//DTD SVG 20010904//EN"
 "http://www.w3.org/TR/2001/REC-SVG-20010904/DTD/svg10.dtd">
<svg version="1.0" xmlns="http://www.w3.org/2000/svg"
 width="500.000000pt" height="500.000000pt" viewBox="0 0 500.000000 500.000000"
 preserveAspectRatio="xMidYMid meet">

<g transform="translate(0.000000,500.000000) scale(0.100000,-0.100000)"
fill="#000000" stroke="none">
<path d="M0 2500 l0 -2500 2500 0 2500 0 0 2500 0 2500 -2500 0 -2500 0 0
-2500z m3568 1604 c26 -8 0 -24 -38 -24 -39 0 -56 12 -45 30 5 8 46 6 83 -6z
m-140 -6 c-5 -15 -76 -29 -84 -16 -11 17 8 28 47 28 28 0 39 -4 37 -12z m-138
-32 c0 -14 -67 -43 -77 -33 -8 9 7 28 31 37 32 13 46 12 46 -4z m390 -1 c30
-16 40 -35 18 -35 -26 0 -78 25 -78 37 0 17 24 16 60 -2z m124 -84 c13 -14 16
-25 10 -31 -13 -13 -80 42 -70 58 9 14 32 4 60 -27z m-324 -31 c0 -25 -18 -36
-26 -16 -8 21 3 49 16 41 5 -3 10 -15 10 -25z m-170 -39 c14 -27 -9 -40 -27
-16 -17 24 -17 35 2 35 8 0 19 -9 25 -19z m344 -14 c-6 -18 -44 -24 -44 -8 0
5 7 17 16 26 19 19 38 7 28 -18z m241 -28 c13 -25 11 -39 -6 -39 -13 0 -51 69
-44 80 9 14 32 -4 50 -41z m-307 0 c99 -49 152 -129 159 -239 9 -128 -65 -245
-182 -289 -31 -12 -62 -21 -70 -21 -12 0 -15 -18 -15 -90 0 -87 1 -90 23 -90
67 0 204 60 266 115 41 38 61 44 61 20 0 -23 -108 -102 -180 -131 -36 -14 -89
-28 -117 -31 l-53 -6 0 -793 0 -794 -980 0 -980 0 0 980 0 980 724 0 724 0 -9
38 c-13 55 -11 139 5 206 l14 58 -63 -62 c-39 -39 -65 -58 -69 -51 -15 24 156
203 175 184 14 -14 61 -213 54 -231 -10 -26 -23 -1 -41 73 -10 41 -21 72 -25
69 -14 -8 -31 -145 -24 -197 12 -92 5 -87 112 -87 86 0 95 2 88 17 -51 133 -8
271 109 356 45 32 95 46 167 47 54 0 77 -6 127 -31z m179 -106 c-14 -14 -19
-15 -29 -4 -11 10 -9 15 6 27 27 20 47 0 23 -23z m181 -14 c8 -33 8 -41 -4
-46 -20 -7 -22 -4 -30 45 -5 34 -4 42 9 42 9 0 19 -16 25 -41z m12 -144 c0
-33 -4 -45 -15 -45 -11 0 -15 11 -15 38 0 21 3 42 7 45 16 16 23 4 23 -38z
m-132 -2 c2 -9 -7 -13 -27 -13 -30 0 -39 9 -24 24 11 10 46 3 51 -11z m122
-107 c0 -22 -21 -76 -30 -76 -17 0 -19 17 -8 53 11 35 38 52 38 23z m-180 -56
c11 -6 12 -12 4 -20 -13 -13 -44 -2 -44 16 0 16 18 18 40 4z m130 -72 c0 -6
-12 -27 -26 -45 -36 -47 -56 -29 -24 21 21 35 50 49 50 24z m-260 -48 c13 -24
5 -41 -15 -34 -26 10 -30 54 -5 54 5 0 14 -9 20 -20z"/>
<path d="M3549 3726 c-47 -54 -82 -85 -95 -85 -12 -1 -50 24 -89 59 -63 56
-95 73 -95 51 0 -5 34 -39 75 -76 42 -38 75 -76 75 -86 0 -11 9 -21 24 -25 31
-8 46 1 46 28 0 12 33 58 80 109 44 48 80 92 80 98 0 28 -33 4 -101 -73z m-84
-126 c3 -5 -1 -10 -10 -10 -9 0 -13 5 -10 10 3 6 8 10 10 10 2 0 7 -4 10 -10z"/>
<path d="M1580 2500 l0 -920 920 0 920 0 0 763 0 762 -62 12 c-133 26 -270
123 -338 242 l-35 60 -702 1 -703 0 0 -920z m1020 590 l0 -49 -72 -3 -73 -3
-3 -207 -2 -208 -55 0 -55 0 0 210 0 210 -75 0 -75 0 0 50 0 50 205 0 205 0 0
-50z m170 -210 l0 -260 -60 0 -60 0 0 260 0 260 60 0 60 0 0 -260z m-526 -674
c27 -90 52 -169 55 -175 4 -7 20 30 35 81 15 51 39 130 52 176 l25 82 69 0 68
0 10 -47 c6 -27 27 -133 47 -238 20 -104 39 -200 42 -212 5 -22 3 -23 -60 -23
l-65 0 -10 58 c-6 31 -18 108 -28 170 -10 61 -21 109 -25 105 -4 -5 -19 -51
-34 -103 -14 -52 -35 -125 -46 -162 l-20 -68 -57 0 -57 0 -50 178 c-27 97 -51
170 -52 162 -2 -8 -16 -87 -31 -175 l-27 -160 -63 -3 c-43 -2 -62 1 -62 9 0
14 89 479 95 497 3 8 27 12 73 12 l69 0 47 -164z m756 114 l0 -49 -92 -3 -93
-3 0 -50 0 -50 88 -3 87 -3 0 -49 0 -50 -90 0 -90 0 0 -50 0 -50 95 0 95 0 0
-55 0 -55 -150 0 -150 0 0 260 0 260 150 0 150 0 0 -50z"/>
<path d="M3030 3412 c0 -14 55 -95 86 -127 67 -71 168 -124 262 -140 l42 -7 0
89 0 89 -53 17 c-29 9 -72 33 -94 52 l-41 35 -101 0 c-56 0 -101 -4 -101 -8z
m270 -84 c0 -7 -5 -20 -10 -28 -12 -20 -33 0 -24 23 7 20 34 23 34 5z"/>
</g>
</svg>
